<svg enable-background="new 0 0 60 48" height="512" viewBox="0 0 60 48" width="512" xmlns="http://www.w3.org/2000/svg"><circle cx="30" cy="24" fill="#e7eced" r="17"/><path d="m30 16c-.379 0-.75.036-1.115.087.07.294.115.597.115.913 0 2.209-1.791 4-4 4-.783 0-1.509-.234-2.126-.623-.555 1.088-.874 2.317-.874 3.623 0 4.418 3.582 8 8 8s8-3.582 8-8-3.582-8-8-8z" fill="#366db6"/><g fill="#4d007e"><path d="m30 42c-9.925 0-18-8.075-18-18s8.075-18 18-18 18 8.075 18 18-8.075 18-18 18zm0-34c-8.822 0-16 7.178-16 16s7.178 16 16 16 16-7.178 16-16-7.178-16-16-16z"/><path d="m56.001 15c-.337 0-.667-.17-.855-.479-4.709-7.723-14.344-12.521-25.146-12.521s-20.437 4.798-25.146 12.521c-.288.471-.903.621-1.375.333s-.621-.903-.333-1.375c5.07-8.314 15.359-13.479 26.854-13.479s21.784 5.165 26.854 13.479c.287.472.138 1.087-.333 1.375-.163.099-.343.146-.52.146z"/><path d="m30 33c-4.962 0-9-4.038-9-9 0-1.425.331-2.797.983-4.078.128-.25.355-.436.626-.51s.561-.031.799.119c.486.307 1.036.469 1.592.469 1.654 0 3-1.346 3-3 0-.208-.029-.433-.088-.685-.065-.273-.011-.562.148-.794s.409-.386.688-.425c.47-.066.868-.096 1.252-.096 4.962 0 9 4.038 9 9s-4.038 9-9 9zm-6.617-11.275c-.255.732-.383 1.493-.383 2.275 0 3.86 3.14 7 7 7s7-3.14 7-7-3.14-7-7-7c0 2.757-2.243 5-5 5-.551 0-1.097-.094-1.617-.275z"/><path d="m1.001 47c-.31 0-.615-.144-.811-.414-.324-.447-.224-1.072.224-1.396l58-42c.448-.324 1.072-.224 1.396.224.324.447.224 1.072-.224 1.396l-58 42c-.177.128-.382.19-.585.19z"/><path d="m30 48c-11.495 0-21.784-5.165-26.854-13.479-.287-.472-.138-1.087.333-1.375.472-.289 1.087-.139 1.375.333 4.709 7.723 14.344 12.521 25.146 12.521s20.437-4.798 25.146-12.521c.288-.472.902-.622 1.375-.333.472.288.621.903.333 1.375-5.07 8.314-15.359 13.479-26.854 13.479z"/></g></svg>