<svg xmlns="http://www.w3.org/2000/svg" width="18" height="18" viewBox="0 0 18 18"><defs><clipPath id="wwmua"><path d="M3.328 9.703c-.875-.875-1.312-1.937-1.312-3.187 0-1.25.437-2.313 1.312-3.188s1.938-1.312 3.188-1.312c1.25 0 2.312.437 3.187 1.312s1.313 1.938 1.313 3.188c0 1.25-.438 2.312-1.313 3.187s-1.937 1.313-3.187 1.313c-1.25 0-2.313-.438-3.188-1.313zm8.39 1.313l-.28-.282c1.03-1.218 1.546-2.625 1.546-4.218 0-1.813-.632-3.352-1.898-4.618C9.82.633 8.289 0 6.492 0 4.695 0 3.164.633 1.898 1.898.633 3.164 0 4.695 0 6.492 0 8.29.633 9.82 1.898 11.086c1.266 1.266 2.805 1.898 4.618 1.898 1.593 0 3-.515 4.218-1.546l.282.28v.798l4.968 4.968 1.5-1.5-4.968-4.968z"/></clipPath></defs><g><g><g><path fill="#333" d="M3.328 9.703c-.875-.875-1.312-1.937-1.312-3.187 0-1.25.437-2.313 1.312-3.188s1.938-1.312 3.188-1.312c1.25 0 2.312.437 3.187 1.312s1.313 1.938 1.313 3.188c0 1.25-.438 2.312-1.313 3.187s-1.937 1.313-3.187 1.313c-1.25 0-2.313-.438-3.188-1.313zm8.39 1.313l-.28-.282c1.03-1.218 1.546-2.625 1.546-4.218 0-1.813-.632-3.352-1.898-4.618C9.82.633 8.289 0 6.492 0 4.695 0 3.164.633 1.898 1.898.633 3.164 0 4.695 0 6.492 0 8.29.633 9.82 1.898 11.086c1.266 1.266 2.805 1.898 4.618 1.898 1.593 0 3-.515 4.218-1.546l.282.28v.798l4.968 4.968 1.5-1.5-4.968-4.968z"/></g><g clip-path="url(#wwmua)"><g><path fill="#4b74ff" d="M-27-27h72v72h-72z"/></g></g></g></g></svg>