<svg xmlns="http://www.w3.org/2000/svg" width="1224" height="92" viewBox="0 0 1224 92"><g><g clip-path="url(#clip-E9F1496C-C85E-4E60-A792-78478C9DB2B1)"><g opacity=".23"><path fill="#4292f4" d="M-171.954 115h-468.97c-.05-52.132-.076-81.406-.076-87.82C-618.323 9.265-588.65.31-551.985.31c69.13 0 163.356 42.301 274.901 42.45C-147.811 42.932-128.269-9-55.596-9 17.078-9 61.32 40.927 164.24 40.927c102.919 0 135.137-39.486 237.125-40.618 134.207-1.49 227.246 42.45 304.641 42.45 77.395 0 77.395-33.914 197.605-34.582 89.81-.5 168.787 34.755 271.706 34.755 112.05 0 133.384-21.025 199.252-21.025 93.66 0 159.175 29.045 184.431 29.045l-4.94 53.622-1199.515 7.246z"/></g><g opacity=".32"><path fill="#4292f4" d="M-172.077 103H-641c.022-35.553.033-57.172.033-64.856 28.912 8.188 52.204 10.045 85.671 10.045 111.578 0 205.772-42.219 274.901-42.219 46.087 0 108.706 27.595 158.108 27.595 135.853 0 152.289-27.918 268.413-27.918 113.622 0 123.503 34.566 268.413 34.566 128.167 0 204.574-26.466 291.467-26.466 143.263 0 143.263 34.442 261.826 34.442C1081.851 48.19 1168.731-1 1275.766-1 1382.802-1 1559 40.213 1559 40.213v61.306z"/></g></g></g></svg>